<svg width="148" height="34" viewBox="0 0 148 34" fill="none" xmlns="http://www.w3.org/2000/svg">
<g clip-path="url(#clip0_1368_14154)">
<path d="M20.2937 20.7262L21.5904 5.88387L26.6428 5.88385L24.4524 20.7262L20.2937 20.7262Z" fill="#3F4350"/>
<path d="M12.2837 11.3774C12.3434 13.1531 9.79251 14.2878 6.99301 14.0653L7.56194 9.50049C10.7944 9.22104 12.2265 9.67853 12.2837 11.3774ZM12.7111 20.7678C12.2741 23.2707 8.96798 23.3646 5.83093 23.3653L6.59166 17.2857C10.9022 17.0108 13.0971 18.5568 12.7111 20.7678ZM16.1717 8.00125C13.384 5.23377 8.12328 5.69615 2.67539 5.92996L0 27.3111C8.59399 27.5468 14.0546 27.6116 16.7374 24.7312C19.4755 21.7917 18.4697 17.2611 15.1172 15.5976C17.9842 13.8925 18.1923 10.0076 16.1717 8.00125Z" fill="#3F4350"/>
<path d="M19.3985 24.7379C19.4044 23.3564 20.5369 22.2363 21.9281 22.2363C23.3195 22.2363 24.4426 23.3564 24.4367 24.7379C24.4308 26.1194 23.2981 27.2392 21.907 27.2392C20.5156 27.2392 19.3925 26.1194 19.3985 24.7379Z" fill="#3F4350"/>
<path d="M34.6897 20.7987L34.5748 20.7997C33.0824 20.8113 32.2516 19.4462 32.2704 17.7696C32.2893 16.0931 32.9196 14.7281 34.6434 14.703L34.7585 14.702C36.3544 14.6789 37.0817 16.0555 37.0628 17.7323C37.044 19.4088 36.4107 20.7738 34.6897 20.7987ZM42.527 11.7481H34.4766C29.9093 11.7385 27.3191 14.4288 27.3193 17.7236C27.3195 19.923 28.4753 21.8566 30.6012 22.9031C28.9908 23.5703 29.0248 25.7693 31.6501 26.3303C34.8574 27.0158 37.2337 27.1296 37.4599 28.3458C37.634 29.2832 36.7636 30.1234 34.3902 30.3315C32.0169 30.5394 29.8199 29.8407 28.2874 28.8679L26.5205 32.0777C30.6754 34.4476 35.2412 34.2833 37.9806 33.409C41.064 32.4247 42.5941 29.5718 41.5441 27.1523C40.614 25.0095 38.0235 24.1939 34.3408 23.8374L35.8889 23.6819L35.886 23.6802C39.793 23.3038 41.9866 20.7861 41.9864 17.755C41.9862 16.8359 41.7842 15.9633 41.3945 15.1821H42.1267L42.527 11.7481Z" fill="#3F4350"/>
<path d="M62.4916 25.5764C59.1264 27.2852 56.6922 27.4255 53.9472 27.4289C50.4998 27.433 48.2807 26.0387 46.7622 24.4563C44.6977 22.3048 43.768 19.1906 44.2224 16.01C45.1366 9.61133 51.6449 5.71608 57.205 5.8883C59.9957 5.97469 61.8619 6.39443 64.026 7.32293L62.7075 11.446C61.6294 10.9451 59.9936 10.0829 57.7114 10.0829C53.7948 10.0829 50.3404 12.3687 49.6699 16.2645C49.0873 19.6498 51.4793 22.6988 55.0518 22.7084C56.1314 22.7114 57.855 22.2774 58.2486 22.0896L58.583 19.306H54.9506L55.4032 15.5542H63.744L62.4916 25.5764Z" fill="#3F4350"/>
<path d="M70.3492 19.441C70.0324 21.7935 71.712 23.137 73.0751 23.0869C74.8729 23.0208 75.9382 21.6603 76.2995 19.5363C76.6231 17.6334 75.707 15.8763 73.6413 15.7954C71.8633 15.7257 70.6489 17.2171 70.3492 19.441ZM81.42 19.4177C81.1718 24.9987 76.9795 27.4075 73.1077 27.4007C69.0616 27.3936 64.8157 24.4032 65.2505 19.2553C65.6587 14.425 69.5998 11.4688 73.8567 11.4688C78.1777 11.4688 81.6364 14.5585 81.42 19.4177Z" fill="#3F4350"/>
<path d="M114.5 27.0801L115.152 18.9162C115.208 18.4527 115.219 18.0296 115.184 17.6463C115.133 17.0823 114.945 16.6032 114.621 16.21C114.297 15.8169 113.768 15.6205 113.033 15.6205C112.16 15.6205 111.49 15.9484 111.024 16.6032C110.558 17.2585 110.288 18.0497 110.214 18.9767L109.527 27.0801H104.763L106.521 5.54102L111.315 5.54195L110.621 13.9877H110.68C111.04 13.3631 111.575 12.8137 112.286 12.3399C112.997 11.8664 113.859 11.6292 114.871 11.6292C115.705 11.6292 116.431 11.7502 117.049 11.9921C117.666 12.234 118.188 12.5666 118.614 12.9899C119.04 13.4132 119.368 13.9022 119.597 14.4563C119.827 15.011 119.969 15.5902 120.024 16.195C120.05 16.4774 120.065 16.7544 120.071 17.0266C120.076 17.2985 120.061 17.5661 120.025 17.8277L119.265 27.0801H114.5Z" fill="#3F4350"/>
<path d="M102.327 25.7226C98.8805 27.3549 97.2986 27.4274 94.6899 27.4306C91.4133 27.435 89.3042 26.0407 87.8612 24.4583C85.8992 22.3068 85.0153 19.1924 85.4473 16.012C86.3162 9.61328 92.5015 5.71803 97.7859 5.89025C100.438 5.97664 102.212 6.39638 104.269 7.32488L103.016 11.4479C101.991 10.9469 100.436 10.0849 98.2674 10.0849C94.5449 10.0849 91.262 12.3706 90.6248 16.2664C90.071 19.6518 92.3443 22.7008 95.7398 22.7104C96.7657 22.7134 98.2896 22.4715 99.2517 22.1126C100.886 21.5028 102.184 20.6466 102.184 20.6466L102.327 25.7226Z" fill="#3F4350"/>
<path d="M131.191 20.4801C130.596 20.4801 129.992 20.5058 129.382 20.5556C128.771 20.6063 128.23 20.7119 127.759 20.8734C127.288 21.0347 126.906 21.2563 126.616 21.5384C126.325 21.8208 126.201 22.1938 126.244 22.6571C126.301 23.2621 126.543 23.6702 126.97 23.8818C127.397 24.0935 127.859 24.1992 128.355 24.1992C129.268 24.1992 130.005 23.9119 130.567 23.3376C131.128 22.7631 131.448 22.0526 131.528 21.2056L131.608 20.4801H131.191ZM136.081 16.4284C136.107 16.7109 136.121 17.0134 136.121 17.3355C136.122 17.6584 136.107 17.9705 136.076 18.273L135.615 24.1385C135.565 24.6631 135.541 25.1968 135.543 25.7413C135.544 26.2855 135.561 26.7289 135.594 27.0717H131.365C131.344 26.8501 131.33 26.5933 131.322 26.3005C131.314 26.0085 131.318 25.7313 131.333 25.4689H131.274C130.305 26.7796 128.858 27.4343 126.933 27.4343C126.416 27.4343 125.879 27.3688 125.321 27.2381C124.762 27.1068 124.245 26.8856 123.769 26.5727C123.293 26.2605 122.892 25.8472 122.566 25.333C122.239 24.8191 122.041 24.1892 121.971 23.4431C121.857 22.2338 122.062 21.2464 122.585 20.4801C123.109 19.7143 123.832 19.1197 124.755 18.6964C125.678 18.273 126.743 17.981 127.948 17.8193C129.154 17.6584 130.372 17.5776 131.603 17.5776C131.625 17.396 131.632 17.2551 131.623 17.1543C131.613 17.0534 131.605 16.9627 131.597 16.8822C131.542 16.2975 131.298 15.869 130.866 15.5968C130.433 15.3247 129.849 15.1885 129.115 15.1885C128.44 15.1885 127.773 15.3202 127.112 15.5818C126.452 15.844 125.864 16.1867 125.348 16.61L123.121 13.8281C123.946 13.1026 124.92 12.5431 126.045 12.1501C127.169 11.7568 128.297 11.5605 129.429 11.5605C130.322 11.5605 131.155 11.6563 131.927 11.8477C132.699 12.0396 133.377 12.3367 133.962 12.7394C134.545 13.143 135.025 13.6465 135.399 14.2514C135.773 14.8563 136.001 15.5818 136.081 16.4284Z" fill="#3F4350"/>
<path d="M137.548 16.7659L137.845 13.3386H140.198L140.605 8.73047H145.25L144.843 13.3386H147.999L147.702 16.7659H144.635L144.239 21.5667C144.232 21.7085 144.231 21.8555 144.236 22.0071C144.24 22.1588 144.248 22.2854 144.258 22.3865C144.306 22.8924 144.478 23.2365 144.773 23.4183C145.068 23.6008 145.454 23.6913 145.931 23.6913C146.169 23.6913 146.4 23.6716 146.625 23.631C146.849 23.5908 147.049 23.5507 147.224 23.5099L147.11 26.9871C146.843 27.108 146.461 27.214 145.964 27.3045C145.466 27.3954 144.989 27.4406 144.533 27.4406C143.103 27.4406 141.948 27.1473 141.069 26.5613C140.188 25.9756 139.688 25.046 139.566 23.7726C139.543 23.5304 139.531 23.2524 139.531 22.9392C139.531 22.6259 139.547 22.3279 139.579 22.0448L139.99 16.7659H137.548Z" fill="#3F4350"/>
</g>
<defs>
<clipPath id="clip0_1368_14154">
<rect width="148" height="34" fill="white"/>
</clipPath>
</defs>
</svg>
