<svg width="229" height="91" viewBox="0 0 229 91" fill="none" xmlns="http://www.w3.org/2000/svg">
<path d="M228.988 50.5353C229.09 53.6573 228.535 56.767 227.356 59.6767C226.271 62.4066 224.604 64.8867 222.461 66.9567C220.305 69.0118 217.733 70.6169 214.905 71.6722C211.951 72.7882 208.803 73.3498 205.63 73.3267C201.861 73.3397 198.141 72.504 194.767 70.8862C191.446 69.3202 188.638 66.9012 186.652 63.8958C184.602 60.7607 183.501 57.1361 183.475 53.4308C183.381 50.48 183.952 47.5447 185.149 44.8272C186.321 42.0789 188.059 39.5882 190.259 37.5058C192.497 35.3697 195.153 33.6826 198.073 32.5422C201.139 31.3382 204.423 30.7335 207.734 30.7635C211.267 30.7515 214.759 31.5005 217.953 32.9558C221.175 34.4122 223.901 36.722 225.811 39.6153C227.887 42.9066 228.986 46.6838 228.988 50.5353ZM214.69 50.2872C214.734 49.2213 214.56 48.1575 214.177 47.1567C213.794 46.1559 213.209 45.2377 212.457 44.4549C211.764 43.7635 210.928 43.2188 210.004 42.8556C209.08 42.4924 208.088 42.3187 207.09 42.3453C206.096 42.2999 205.102 42.4446 204.166 42.7712C203.23 43.0978 202.371 43.5997 201.637 44.2481C200.244 45.5053 199.209 47.0863 198.632 48.8394C198.054 50.449 197.763 52.1413 197.773 53.8444C197.755 55.9285 198.534 57.9459 199.963 59.5112C200.658 60.2703 201.519 60.8717 202.484 61.2722C203.449 61.6727 204.494 61.8624 205.544 61.8276C207.331 61.8268 209.061 61.2272 210.439 60.1317C211.899 58.9635 213.022 57.4538 213.702 55.7472C214.363 53.9974 214.698 52.149 214.691 50.2872H214.69Z" fill="black"/>
<path d="M176.346 30.7208C172.102 28.2864 167.244 27.0273 162.305 27.0822C157.778 27.0833 153.326 28.2088 149.381 30.3499C146.21 32.0541 143.594 34.5748 141.825 37.6299C140.254 40.3482 139.44 43.412 139.463 46.5231C139.489 48.9855 140.153 51.4028 141.395 53.5549C142.601 55.7161 144.398 57.5183 146.591 58.7667C148.962 60.1352 151.684 60.8373 154.448 60.7935C155.729 60.7879 157.008 60.6772 158.269 60.4626C159.369 60.2999 160.458 60.079 161.533 59.8008C162.434 59.5526 163.121 59.3458 163.765 59.139L164.71 51.6935H154.491L155.779 41.6835H179.223L175.702 68.4031C173.666 69.4179 171.557 70.2889 169.39 71.009C166.979 71.7715 164.51 72.3524 162.005 72.7463C159.081 73.201 156.121 73.4086 153.16 73.3667C149.607 73.4903 146.057 73.0715 142.64 72.1258C139.391 71.1583 136.371 69.5841 133.752 67.4931C130.811 65.1435 128.412 62.2269 126.711 58.9308C124.991 55.5251 124.068 51.7975 124.006 48.0108C123.888 45.1226 124.236 42.2342 125.036 39.4485C126.247 35.5646 128.246 31.9512 130.919 28.8181C134.117 25.1382 138.062 22.1261 142.512 19.9663C148.178 17.2082 154.455 15.8176 160.803 15.914C167.409 15.8902 173.947 17.2006 179.995 19.7608L176.346 30.7208Z" fill="black"/>
<path d="M45.4673 21.5394C37.6542 14.1767 22.841 15.4176 7.51395 16.038L0 73.0757C24.172 73.6962 39.5434 73.8616 47.0559 66.2094C48.7883 64.4664 50.0682 62.3535 50.7913 60.0431C51.5144 57.7327 51.6602 55.2903 51.2167 52.9153C50.7732 50.5403 49.753 48.3 48.2394 46.3773C46.7259 44.4545 44.7618 42.9038 42.5075 41.8517C44.2791 40.8581 45.7935 39.49 46.9365 37.8507C48.0796 36.2114 48.8216 34.3435 49.1066 32.3878C49.3916 30.4321 49.2121 28.4397 48.5817 26.5605C47.9513 24.6813 46.8864 22.9645 45.4673 21.5394V21.5394ZM35.7635 55.6217C34.5184 62.2812 25.244 62.5294 16.4004 62.5707L18.5473 46.3576C30.6555 45.5744 36.8384 49.7108 35.765 55.6217H35.7635ZM34.5613 30.5567C34.7331 35.3135 27.5626 38.333 19.6636 37.7126L21.2523 25.5517C30.3549 24.8071 34.391 26.048 34.5627 30.5567H34.5613Z" fill="black"/>
<path d="M54.5752 66.2122C54.6083 64.42 55.3767 62.7134 56.7124 61.4654C58.048 60.2175 59.8422 59.5298 61.7027 59.5526C62.6204 59.5393 63.5318 59.7016 64.3839 60.03C65.2361 60.3584 66.0121 60.8464 66.6671 61.4659C67.322 62.0853 67.8429 62.8237 68.1995 63.6385C68.556 64.4532 68.7412 65.328 68.7444 66.2122C68.7112 68.0044 67.9428 69.711 66.6072 70.959C65.2716 72.2069 63.4773 72.8946 61.6168 72.8717C60.6991 72.885 59.7878 72.7228 58.9356 72.3944C58.0835 72.066 57.3074 71.5779 56.6525 70.9585C55.9975 70.3391 55.4767 69.6006 55.1201 68.7859C54.7635 67.9712 54.5783 67.0964 54.5752 66.2122V66.2122Z" fill="black"/>
<path d="M119.579 31.5535H96.9531C84.115 31.5122 76.8171 38.7094 76.8171 47.4771C76.7981 50.3944 77.6608 53.254 79.3 55.707C80.9392 58.1599 83.2841 60.1003 86.0486 61.2912C81.5402 63.0699 81.6261 68.9435 89.0112 70.4326C98.028 72.2526 104.725 72.5835 105.369 75.8099C105.841 78.2917 103.394 80.5667 96.7384 81.1044C90.7327 81.5658 84.7275 80.2063 79.5637 77.2162L74.583 85.7785C84.4214 91.0207 96.0133 92.2995 106.827 89.3358C115.5 86.7299 119.794 79.0776 116.831 72.6262C114.212 66.918 106.913 64.7258 96.5667 63.7744L100.903 63.3608C111.895 62.3681 118.078 55.6258 118.078 47.5613C118.1 45.1762 117.526 42.821 116.404 40.6949H118.464L119.579 31.5535ZM97.5542 55.7085H97.2107C93.0029 55.7499 90.6843 52.1099 90.7273 47.6426C90.7702 43.1753 92.5735 39.5353 97.3825 39.4526H97.726C102.234 39.4112 104.252 43.0512 104.209 47.5185C104.166 51.9858 102.406 55.6258 97.5542 55.7085Z" fill="black"/>
<path d="M57.0645 55.4976L60.7141 15.9139H74.9248L68.7848 55.4976H57.0645Z" fill="black"/>
</svg>
